<svg width="80" height="59" viewBox="0 0 80 59" fill="none" xmlns="http://www.w3.org/2000/svg">
<path d="M0 59V0H46.1703V8.95948H12.8597V24.9771H43.7786V33.9365H12.8597V50.0405H46.4476V59H0Z" fill="black"/>
<path d="M20.8451 46.3242L17.7959 37.1055H18.5L21.208 45.4555H21.273L23.9376 37.1055H24.7609L27.4255 45.4555H27.4905L30.1985 37.1055H30.8972L27.848 46.3242H27.0681L24.3763 38.0282H24.3168L21.625 46.3242H20.8451Z" fill="black"/>
<path d="M33.1976 48.917C33.0315 48.917 32.8673 48.902 32.7048 48.872C32.5423 48.842 32.3961 48.803 32.2661 48.7549L32.4611 48.2733C32.8005 48.3813 33.1074 48.4203 33.3818 48.3903C33.6598 48.3603 33.9053 48.2553 34.1184 48.0752C34.3314 47.8952 34.5119 47.6311 34.66 47.283L35.0391 46.4187L31.9899 39.4102H32.6994L35.3424 45.6175H35.3965L38.0395 39.4102H38.749L35.2395 47.4991C35.1059 47.8112 34.938 48.0722 34.7358 48.2823C34.5336 48.4924 34.3025 48.6499 34.0425 48.7549C33.7862 48.863 33.5045 48.917 33.1976 48.917Z" fill="black"/>
<path d="M46.0999 40.9001L45.4879 41.0351C45.3904 40.7831 45.2514 40.5655 45.0709 40.3824C44.8903 40.1994 44.6629 40.0583 44.3885 39.9593C44.1177 39.8573 43.7927 39.8063 43.4136 39.8063C42.8034 39.8063 42.3033 39.9323 41.9133 40.1844C41.527 40.4365 41.3338 40.7651 41.3338 41.1702C41.3338 41.5003 41.4656 41.7734 41.7292 41.9894C41.9928 42.2025 42.3954 42.3645 42.937 42.4756L44.2151 42.7411C44.8723 42.8762 45.3669 43.0953 45.6991 43.3983C46.0313 43.6984 46.1974 44.072 46.1974 44.5192C46.1974 44.9003 46.0728 45.2379 45.8237 45.532C45.5745 45.8261 45.2297 46.0556 44.7892 46.2207C44.3523 46.3857 43.8432 46.4683 43.2619 46.4683C42.4856 46.4683 41.8483 46.3182 41.3501 46.0181C40.8518 45.715 40.5323 45.2814 40.3914 44.7172L41.0251 44.5822C41.1443 45.0323 41.3916 45.3759 41.7671 45.613C42.1462 45.8471 42.6427 45.9641 43.2565 45.9641C43.9353 45.9641 44.4823 45.8306 44.8975 45.5635C45.3164 45.2964 45.5258 44.9543 45.5258 44.5372C45.5258 44.2191 45.403 43.9505 45.1575 43.7314C44.912 43.5124 44.5401 43.3518 44.0418 43.2498L42.7149 42.9797C42.0361 42.8417 41.527 42.6211 41.1876 42.318C40.8482 42.0119 40.6785 41.6353 40.6785 41.1882C40.6785 40.8161 40.7958 40.489 41.0305 40.2069C41.2652 39.9248 41.5884 39.7042 42 39.5452C42.4116 39.3862 42.8828 39.3066 43.4136 39.3066C44.1176 39.3066 44.6917 39.4447 45.1359 39.7207C45.58 39.9968 45.9013 40.39 46.0999 40.9001Z" fill="black"/>
<path d="M51.4252 39.4102V39.9008H47.791V39.4102H51.4252ZM49.0205 37.7537H49.6758V44.6902C49.6758 44.9723 49.7408 45.2034 49.8708 45.3834C50.0044 45.5605 50.1777 45.6925 50.3907 45.7796C50.6074 45.8636 50.8385 45.9056 51.084 45.9056C51.2031 45.9056 51.306 45.8981 51.3927 45.8831C51.483 45.8681 51.5678 45.8486 51.6472 45.8246L51.8097 46.3242C51.7086 46.3542 51.5967 46.3797 51.4739 46.4007C51.3512 46.4247 51.2067 46.4368 51.0406 46.4368C50.694 46.4368 50.3655 46.3722 50.0549 46.2432C49.748 46.1142 49.4989 45.9266 49.3075 45.6805C49.1162 45.4345 49.0205 45.1374 49.0205 44.7893V37.7537Z" fill="black"/>
<path d="M56.0802 46.4728C55.6 46.4728 55.1595 46.3932 54.7587 46.2342C54.3616 46.0751 54.042 45.8426 53.8001 45.5365C53.5618 45.2304 53.4426 44.8583 53.4426 44.4202C53.4426 44.1321 53.504 43.8785 53.6268 43.6594C53.7496 43.4404 53.9391 43.2513 54.1955 43.0923C54.4518 42.9332 54.7804 42.8027 55.1812 42.7006C55.582 42.5956 56.0604 42.5146 56.6164 42.4576C57.0389 42.4156 57.4162 42.375 57.7484 42.336C58.0805 42.294 58.3405 42.2295 58.5283 42.1425C58.7196 42.0554 58.8153 41.9234 58.8153 41.7464V41.4583C58.8153 40.9541 58.6239 40.5535 58.2412 40.2564C57.8585 39.9593 57.3313 39.8108 56.6597 39.8108C56.064 39.8108 55.5621 39.9203 55.1541 40.1394C54.7497 40.3554 54.4663 40.6345 54.3038 40.9766L53.6809 40.7831C53.8398 40.453 54.0691 40.1784 54.3688 39.9593C54.6721 39.7403 55.0187 39.5767 55.4087 39.4687C55.8022 39.3606 56.2138 39.3066 56.6435 39.3066C57.0154 39.3066 57.3692 39.3501 57.705 39.4372C58.0444 39.5242 58.3459 39.6562 58.6095 39.8333C58.8767 40.0103 59.0879 40.2369 59.2432 40.513C59.3984 40.7861 59.4761 41.1132 59.4761 41.4943V46.3242H58.8153V45.0773H58.7666C58.6221 45.3354 58.4236 45.571 58.1708 45.7841C57.9217 45.9941 57.6202 46.1622 57.2663 46.2882C56.9161 46.4112 56.5207 46.4728 56.0802 46.4728ZM56.1452 45.9641C56.6652 45.9641 57.1255 45.8591 57.5263 45.649C57.9307 45.436 58.2466 45.1449 58.4741 44.7758C58.7016 44.4066 58.8153 43.988 58.8153 43.5199V42.5026C58.7323 42.5626 58.6113 42.6166 58.4524 42.6646C58.2972 42.7096 58.1203 42.7502 57.9217 42.7862C57.7267 42.8192 57.5209 42.8492 57.3042 42.8762C57.0912 42.9002 56.8836 42.9227 56.6814 42.9437C56.0748 43.0037 55.5802 43.0968 55.1974 43.2228C54.8183 43.3458 54.5403 43.5079 54.3634 43.7089C54.1901 43.91 54.1034 44.1531 54.1034 44.4382C54.1034 44.9093 54.2984 45.2814 54.6883 45.5545C55.0783 45.8276 55.5639 45.9641 56.1452 45.9641Z" fill="black"/>
<path d="M64.0607 46.3242L61.5694 39.4102H62.2626L64.4073 45.5185H64.4669L66.6171 39.4102H67.3049L69.4496 45.514H69.5038L71.6485 39.4102H72.3418L69.8504 46.3242H69.1138L66.9908 40.3059H66.9204L64.7973 46.3242H64.0607Z" fill="black"/>
<path d="M76.6042 46.4728C76.1239 46.4728 75.6834 46.3932 75.2827 46.2342C74.8855 46.0751 74.5659 45.8426 74.324 45.5365C74.0857 45.2304 73.9666 44.8583 73.9666 44.4202C73.9666 44.1321 74.028 43.8785 74.1507 43.6594C74.2735 43.4404 74.463 43.2513 74.7194 43.0923C74.9758 42.9332 75.3043 42.8027 75.7051 42.7006C76.1059 42.5956 76.5843 42.5146 77.1404 42.4576C77.5628 42.4156 77.9401 42.375 78.2723 42.336C78.6045 42.294 78.8644 42.2295 79.0522 42.1425C79.2436 42.0554 79.3392 41.9234 79.3392 41.7464V41.4583C79.3392 40.9541 79.1479 40.5535 78.7651 40.2564C78.3824 39.9593 77.8553 39.8108 77.1837 39.8108C76.5879 39.8108 76.086 39.9203 75.678 40.1394C75.2736 40.3554 74.9902 40.6345 74.8277 40.9766L74.2049 40.7831C74.3637 40.453 74.593 40.1784 74.8927 39.9593C75.196 39.7403 75.5426 39.5767 75.9326 39.4687C76.3261 39.3606 76.7378 39.3066 77.1674 39.3066C77.5393 39.3066 77.8932 39.3501 78.229 39.4372C78.5684 39.5242 78.8699 39.6562 79.1334 39.8333C79.4006 40.0103 79.6119 40.2369 79.7671 40.513C79.9224 40.7861 80 41.1132 80 41.4943V46.3242H79.3392V45.0773H79.2905C79.1461 45.3354 78.9475 45.571 78.6947 45.7841C78.4456 45.9941 78.1441 46.1622 77.7903 46.2882C77.44 46.4112 77.0447 46.4728 76.6042 46.4728ZM76.6692 45.9641C77.1891 45.9641 77.6494 45.8591 78.0502 45.649C78.4546 45.436 78.7706 45.1449 78.998 44.7758C79.2255 44.4066 79.3392 43.988 79.3392 43.5199V42.5026C79.2562 42.5626 79.1352 42.6166 78.9764 42.6646C78.8211 42.7096 78.6442 42.7502 78.4456 42.7862C78.2506 42.8192 78.0448 42.8492 77.8282 42.8762C77.6151 42.9002 77.4075 42.9227 77.2053 42.9437C76.5988 43.0037 76.1041 43.0968 75.7214 43.2228C75.3422 43.3458 75.0642 43.5079 74.8873 43.7089C74.714 43.91 74.6273 44.1531 74.6273 44.4382C74.6273 44.9093 74.8223 45.2814 75.2122 45.5545C75.6022 45.8276 76.0878 45.9641 76.6692 45.9641Z" fill="black"/>
</svg>
